M48
; DRILL file {KiCad (6.0.6-0)} date 2022 July 20, Wednesday 22:47:03
; FORMAT={-:-/ absolute / metric / decimal}
; #@! TF.CreationDate,2022-07-20T22:47:03+08:00
; #@! TF.GenerationSoftware,Kicad,Pcbnew,(6.0.6-0)
; #@! TF.FileFunction,Plated,1,2,PTH
FMAT,2
METRIC
; #@! TA.AperFunction,Plated,PTH,ViaDrill
T1C0.300
; #@! TA.AperFunction,Plated,PTH,ViaDrill
T2C0.400
; #@! TA.AperFunction,Plated,PTH,ComponentDrill
T3C0.600
; #@! TA.AperFunction,Plated,PTH,ComponentDrill
T4C1.000
; #@! TA.AperFunction,Plated,PTH,ComponentDrill
T5C1.500
; #@! TA.AperFunction,Plated,PTH,ComponentDrill
T6C1.524
%
G90
G05
T1
X-11.29Y109.77
X-11.249Y119.9
X-10.45Y118.929
X-10.0Y112.1
X-9.05Y111.11
X-8.5Y110.36
X-8.46Y108.88
X-7.547Y111.11
X-6.947Y110.346
X-6.0Y112.1
X-5.547Y118.937
X-4.75Y119.9
X-0.1Y92.41
X2.65Y109.77
X4.21Y73.34
X4.49Y92.4
X9.04Y73.37
X28.05Y45.35
X33.05Y50.35
X33.056Y68.599
X33.85Y67.8
X34.611Y54.309
X39.53Y96.88
X40.317Y87.627
X41.273Y42.35
X42.072Y42.35
X42.872Y42.35
X43.671Y42.35
X43.98Y72.05
X44.471Y42.35
X44.701Y32.045
X45.27Y42.35
X45.5Y32.045
X46.07Y42.35
X46.3Y32.045
X47.191Y32.045
X47.99Y32.08
X48.88Y32.045
X50.01Y30.496
X50.54Y43.0
X50.64Y65.65
X51.64Y46.94
X52.51Y46.96
X53.22Y31.295
X53.45Y46.94
X54.38Y46.95
X55.31Y46.96
X55.492Y48.672
X56.27Y46.97
X56.925Y31.21
X57.121Y47.002
X58.724Y31.184
X59.04Y40.88
X60.786Y44.6
X63.376Y43.339
X64.23Y32.03
X64.31Y67.795
X64.317Y66.935
X64.47Y33.01
X64.913Y38.737
X64.936Y68.584
X65.326Y69.283
X74.51Y27.48
X74.734Y28.36
X74.78Y49.459
X74.91Y29.14
X75.145Y50.171
X81.31Y60.174
X85.0Y52.76
X91.886Y69.209
X104.04Y68.584
X104.369Y32.995
X123.102Y68.135
X142.19Y53.633
X147.586Y67.684
X161.2Y53.633
X180.31Y53.633
X204.05Y53.633
X207.35Y73.3
X213.05Y63.85
X225.8Y61.125
X229.2Y61.275
X229.825Y60.65
X236.73Y95.6
X237.71Y105.81
X238.27Y78.705
X239.775Y84.05
X240.925Y76.475
X241.3Y106.79
X241.525Y85.075
X241.54Y95.57
X241.64Y118.06
X243.575Y98.625
X243.745Y82.1
X243.77Y109.25
X246.525Y85.75
X246.6Y82.9
X246.61Y119.34
X246.625Y101.6
X246.639Y114.19
X247.775Y62.1
X247.8Y119.375
X247.8Y57.0
X247.825Y114.225
X247.825Y100.075
X247.825Y95.275
X247.825Y81.125
X247.85Y75.9
T2
X31.5Y28.9
X33.94Y43.0
X40.89Y28.94
X97.725Y42.095
X128.16Y43.079
T4
X100.6Y39.285
X100.6Y36.745
X103.14Y39.285
X103.14Y36.745
X105.68Y39.285
X105.68Y36.745
X108.22Y39.285
X108.22Y36.745
X251.116Y116.8
X251.116Y114.3
X251.116Y111.8
X251.116Y97.75
X251.116Y95.25
X251.116Y92.75
X251.116Y78.7
X251.116Y76.2
X251.116Y73.7
X251.116Y59.65
X251.116Y57.15
X251.116Y54.65
X265.616Y116.8
X265.616Y111.8
X265.616Y97.75
X265.616Y92.75
X265.616Y78.7
X265.616Y73.7
X265.616Y59.65
X265.616Y54.65
T6
X-40.41Y116.84
X-38.029Y40.64
X-35.648Y97.79
X-34.06Y119.38
X-33.266Y78.74
X-31.679Y43.18
X-29.297Y100.33
X-28.813Y59.69
X-26.916Y81.28
X-22.463Y62.23
X-21.36Y116.84
X-15.01Y119.38
X-14.216Y40.64
X-12.144Y97.79
X-7.866Y43.18
X-7.382Y78.74
X-5.794Y100.33
X-2.31Y116.84
X-1.032Y81.28
X2.452Y59.69
X4.04Y119.38
X6.906Y97.79
X8.803Y62.23
X9.596Y40.64
X11.668Y78.74
X13.256Y100.33
X15.946Y43.18
X16.74Y116.84
X18.018Y81.28
X21.502Y59.69
X23.09Y119.38
X25.956Y97.79
X27.852Y62.23
X30.718Y78.74
X32.306Y100.33
X35.79Y116.84
X37.068Y81.28
X40.552Y59.69
X42.14Y119.38
X45.006Y97.79
X46.902Y62.23
X49.768Y78.74
X51.356Y100.33
X54.84Y116.84
X56.118Y81.28
X59.602Y59.69
X61.19Y119.38
X64.056Y97.79
X65.953Y62.23
X68.818Y78.74
X70.406Y100.33
X73.89Y116.84
X75.168Y81.28
X78.653Y59.69
X80.24Y119.38
X81.034Y40.64
X83.106Y97.79
X85.002Y62.23
X87.384Y43.18
X87.868Y78.74
X89.456Y100.33
X92.94Y116.84
X94.218Y81.28
X97.703Y59.69
X99.29Y119.38
X102.156Y97.79
X104.052Y62.23
X106.918Y78.74
X108.506Y100.33
X111.99Y116.84
X113.268Y81.28
X116.752Y59.69
X118.34Y119.38
X121.206Y97.79
X123.102Y62.23
X125.968Y78.74
X127.556Y100.33
X131.04Y116.84
X132.318Y81.28
X135.802Y59.69
X137.39Y119.38
X140.256Y97.79
X142.153Y62.23
X145.018Y78.74
X146.606Y100.33
X149.781Y40.64
X150.09Y116.84
X151.368Y81.28
X154.852Y59.69
X156.131Y43.18
X156.44Y119.38
X159.306Y97.79
X161.202Y62.23
X164.068Y78.74
X165.656Y100.33
X168.831Y40.64
X169.14Y116.84
X170.418Y81.28
X173.903Y59.69
X175.181Y43.18
X175.49Y119.38
X178.356Y97.79
X180.252Y62.23
X183.118Y78.74
X184.706Y100.33
X187.881Y40.64
X188.19Y116.84
X189.468Y81.28
X194.231Y43.18
X194.54Y119.38
X197.406Y97.79
X197.715Y59.69
X203.756Y100.33
X204.065Y62.23
X212.002Y35.877
X214.074Y78.74
X216.765Y116.84
X218.352Y38.417
X220.424Y81.28
X221.218Y97.79
X223.115Y119.38
X227.568Y100.33
X231.052Y54.927
X231.052Y35.877
X237.403Y57.467
X237.403Y38.417
X250.102Y35.877
X254.865Y116.84
X254.865Y97.79
X254.865Y78.74
X254.865Y59.69
X256.452Y38.417
X261.215Y119.38
X261.215Y100.33
X261.215Y81.28
X261.215Y62.23
T3
G00X-12.32Y126.81
M15
G01X-12.32Y126.21
M16
G05
G00X-12.32Y122.88
M15
G01X-12.32Y121.78
M16
G05
G00X-3.68Y126.81
M15
G01X-3.68Y126.21
M16
G05
G00X-3.68Y122.88
M15
G01X-3.68Y121.78
M16
G05
T5
G00X257.966Y119.9
M15
G01X259.266Y119.9
M16
G05
G00X257.966Y108.7
M15
G01X259.266Y108.7
M16
G05
G00X257.966Y100.85
M15
G01X259.266Y100.85
M16
G05
G00X257.966Y89.65
M15
G01X259.266Y89.65
M16
G05
G00X257.966Y81.8
M15
G01X259.266Y81.8
M16
G05
G00X257.966Y70.6
M15
G01X259.266Y70.6
M16
G05
G00X257.966Y62.75
M15
G01X259.266Y62.75
M16
G05
G00X257.966Y51.55
M15
G01X259.266Y51.55
M16
G05
T0
M30
