%TF.GenerationSoftware,KiCad,Pcbnew,(6.0.6-0)*%
%TF.CreationDate,2022-07-20T23:02:44+08:00*%
%TF.ProjectId,SCO68R,53434f36-3852-42e6-9b69-6361645f7063,rev?*%
%TF.SameCoordinates,Original*%
%TF.FileFunction,Paste,Bot*%
%TF.FilePolarity,Positive*%
%FSLAX46Y46*%
G04 Gerber Fmt 4.6, Leading zero omitted, Abs format (unit mm)*
G04 Created by KiCad (PCBNEW (6.0.6-0)) date 2022-07-20 23:02:44*
%MOMM*%
%LPD*%
G01*
G04 APERTURE LIST*
G04 Aperture macros list*
%AMRoundRect*
0 Rectangle with rounded corners*
0 $1 Rounding radius*
0 $2 $3 $4 $5 $6 $7 $8 $9 X,Y pos of 4 corners*
0 Add a 4 corners polygon primitive as box body*
4,1,4,$2,$3,$4,$5,$6,$7,$8,$9,$2,$3,0*
0 Add four circle primitives for the rounded corners*
1,1,$1+$1,$2,$3*
1,1,$1+$1,$4,$5*
1,1,$1+$1,$6,$7*
1,1,$1+$1,$8,$9*
0 Add four rect primitives between the rounded corners*
20,1,$1+$1,$2,$3,$4,$5,0*
20,1,$1+$1,$4,$5,$6,$7,0*
20,1,$1+$1,$6,$7,$8,$9,0*
20,1,$1+$1,$8,$9,$2,$3,0*%
G04 Aperture macros list end*
%ADD10R,0.900000X1.200000*%
%ADD11R,1.200000X0.900000*%
%ADD12RoundRect,0.250000X0.412500X0.650000X-0.412500X0.650000X-0.412500X-0.650000X0.412500X-0.650000X0*%
%ADD13RoundRect,0.155000X0.212500X0.155000X-0.212500X0.155000X-0.212500X-0.155000X0.212500X-0.155000X0*%
%ADD14RoundRect,0.160000X0.160000X-0.197500X0.160000X0.197500X-0.160000X0.197500X-0.160000X-0.197500X0*%
%ADD15RoundRect,0.155000X0.155000X-0.212500X0.155000X0.212500X-0.155000X0.212500X-0.155000X-0.212500X0*%
%ADD16RoundRect,0.160000X-0.160000X0.197500X-0.160000X-0.197500X0.160000X-0.197500X0.160000X0.197500X0*%
%ADD17RoundRect,0.250000X-0.475000X0.337500X-0.475000X-0.337500X0.475000X-0.337500X0.475000X0.337500X0*%
%ADD18R,2.000000X1.500000*%
%ADD19R,2.000000X3.800000*%
%ADD20RoundRect,0.160000X0.197500X0.160000X-0.197500X0.160000X-0.197500X-0.160000X0.197500X-0.160000X0*%
%ADD21R,0.300000X0.550000*%
%ADD22R,0.400000X0.550000*%
%ADD23R,2.100000X1.800000*%
%ADD24RoundRect,0.075000X0.075000X-0.662500X0.075000X0.662500X-0.075000X0.662500X-0.075000X-0.662500X0*%
%ADD25RoundRect,0.075000X0.662500X-0.075000X0.662500X0.075000X-0.662500X0.075000X-0.662500X-0.075000X0*%
%ADD26R,0.600000X1.450000*%
%ADD27R,0.300000X1.450000*%
%ADD28RoundRect,0.250000X0.475000X-0.337500X0.475000X0.337500X-0.475000X0.337500X-0.475000X-0.337500X0*%
%ADD29RoundRect,0.155000X-0.212500X-0.155000X0.212500X-0.155000X0.212500X0.155000X-0.212500X0.155000X0*%
%ADD30R,1.100000X1.100000*%
%ADD31RoundRect,0.250000X-0.412500X-0.650000X0.412500X-0.650000X0.412500X0.650000X-0.412500X0.650000X0*%
%ADD32RoundRect,0.250001X-0.624999X0.462499X-0.624999X-0.462499X0.624999X-0.462499X0.624999X0.462499X0*%
%ADD33RoundRect,0.237500X-0.300000X-0.237500X0.300000X-0.237500X0.300000X0.237500X-0.300000X0.237500X0*%
%ADD34RoundRect,0.150000X0.150000X-0.587500X0.150000X0.587500X-0.150000X0.587500X-0.150000X-0.587500X0*%
%ADD35RoundRect,0.155000X-0.155000X0.212500X-0.155000X-0.212500X0.155000X-0.212500X0.155000X0.212500X0*%
G04 APERTURE END LIST*
D10*
%TO.C,D30*%
X256950000Y85800000D03*
X260250000Y85800000D03*
%TD*%
D11*
%TO.C,D67*%
X226218750Y30496875D03*
X226218750Y33796875D03*
%TD*%
D12*
%TO.C,C2*%
X31174633Y33163857D03*
X28049633Y33163857D03*
%TD*%
D11*
%TO.C,D55*%
X185737500Y54309375D03*
X185737500Y57609375D03*
%TD*%
%TO.C,D29*%
X214360000Y92430000D03*
X214360000Y95730000D03*
%TD*%
%TO.C,D64*%
X163996875Y35259375D03*
X163996875Y38559375D03*
%TD*%
%TO.C,D16*%
X-23812500Y92409375D03*
X-23812500Y95709375D03*
%TD*%
D13*
%TO.C,C7*%
X50567502Y41950000D03*
X49432502Y41950000D03*
%TD*%
D11*
%TO.C,D27*%
X190190625Y92409375D03*
X190190625Y95709375D03*
%TD*%
%TO.C,D53*%
X147637500Y54309375D03*
X147637500Y57609375D03*
%TD*%
D10*
%TO.C,D44*%
X257150000Y66800000D03*
X260450000Y66800000D03*
%TD*%
D11*
%TO.C,D60*%
X-2381250Y35259375D03*
X-2381250Y38559375D03*
%TD*%
%TO.C,D31*%
X-21431250Y73359375D03*
X-21431250Y76659375D03*
%TD*%
%TO.C,D4*%
X28575000Y111459375D03*
X28575000Y114759375D03*
%TD*%
%TO.C,D41*%
X175903125Y73359375D03*
X175903125Y76659375D03*
%TD*%
%TO.C,D24*%
X133040625Y92409375D03*
X133040625Y95709375D03*
%TD*%
D14*
%TO.C,R14*%
X247800000Y54602500D03*
X247800000Y55797500D03*
%TD*%
D11*
%TO.C,D23*%
X113990625Y92409375D03*
X113990625Y95709375D03*
%TD*%
%TO.C,D38*%
X118753125Y73359375D03*
X118753125Y76659375D03*
%TD*%
%TO.C,D19*%
X37790625Y92409375D03*
X37790625Y95709375D03*
%TD*%
D15*
%TO.C,C8*%
X60300001Y45482499D03*
X60300001Y46617499D03*
%TD*%
%TO.C,C17*%
X246600000Y97832500D03*
X246600000Y98967500D03*
%TD*%
D11*
%TO.C,D26*%
X171140625Y92409375D03*
X171140625Y95709375D03*
%TD*%
%TO.C,D48*%
X36100000Y54309375D03*
X36100000Y57609375D03*
%TD*%
%TO.C,D21*%
X75890625Y92409375D03*
X75890625Y95709375D03*
%TD*%
%TO.C,D33*%
X23503125Y73359375D03*
X23503125Y76659375D03*
%TD*%
D16*
%TO.C,R2*%
X-10000000Y114397501D03*
X-10000000Y113202501D03*
%TD*%
D10*
%TO.C,D58*%
X257150000Y47750000D03*
X260450000Y47750000D03*
%TD*%
D17*
%TO.C,C4*%
X53976566Y29507082D03*
X53976566Y27432082D03*
%TD*%
D11*
%TO.C,D49*%
X90170000Y56690625D03*
X90170000Y59990625D03*
%TD*%
D16*
%TO.C,R3*%
X-6000000Y114397501D03*
X-6000000Y113202501D03*
%TD*%
D11*
%TO.C,D14*%
X204787500Y111459375D03*
X204787500Y114759375D03*
%TD*%
%TO.C,D50*%
X93132500Y56690625D03*
X93132500Y59990625D03*
%TD*%
D18*
%TO.C,U1*%
X26462133Y35813603D03*
X26462133Y38113603D03*
D19*
X32762133Y38113603D03*
D18*
X26462133Y40413603D03*
%TD*%
D20*
%TO.C,R5*%
X242117500Y77800000D03*
X240922500Y77800000D03*
%TD*%
D11*
%TO.C,D12*%
X180975000Y111459375D03*
X180975000Y114759375D03*
%TD*%
%TO.C,D47*%
X17100000Y54309375D03*
X17100000Y57609375D03*
%TD*%
%TO.C,D66*%
X207168750Y30496875D03*
X207168750Y33796875D03*
%TD*%
D21*
%TO.C,U2*%
X-6999999Y115681876D03*
X-7499999Y115681876D03*
D22*
X-7999999Y115681876D03*
D21*
X-8499999Y115681876D03*
X-8999999Y115681876D03*
X-8999999Y116451876D03*
X-8499999Y116451876D03*
D22*
X-7999999Y116451876D03*
D21*
X-7499999Y116451876D03*
X-6999999Y116451876D03*
%TD*%
D11*
%TO.C,D17*%
X-19300000Y92409375D03*
X-19300000Y95709375D03*
%TD*%
D23*
%TO.C,Y1*%
X59450002Y27200000D03*
X56550002Y27200000D03*
X56550002Y29500000D03*
X59450002Y29500000D03*
%TD*%
D11*
%TO.C,D7*%
X85725000Y111459375D03*
X85725000Y114759375D03*
%TD*%
D14*
%TO.C,R6*%
X239020000Y79902502D03*
X239020000Y81097502D03*
%TD*%
%TO.C,R13*%
X247800000Y59602500D03*
X247800000Y60797500D03*
%TD*%
D11*
%TO.C,D3*%
X9525000Y111459375D03*
X9525000Y114759375D03*
%TD*%
%TO.C,D62*%
X92868750Y35259375D03*
X92868750Y38559375D03*
%TD*%
%TO.C,D68*%
X245268750Y30496875D03*
X245268750Y33796875D03*
%TD*%
D15*
%TO.C,C20*%
X246650000Y73632500D03*
X246650000Y74767500D03*
%TD*%
D11*
%TO.C,D42*%
X194953125Y73359375D03*
X194953125Y76659375D03*
%TD*%
%TO.C,D54*%
X166687500Y54309375D03*
X166687500Y57609375D03*
%TD*%
%TO.C,D61*%
X21431250Y35259375D03*
X21431250Y38559375D03*
%TD*%
D15*
%TO.C,C22*%
X246600000Y54632500D03*
X246600000Y55767500D03*
%TD*%
D11*
%TO.C,D28*%
X209240625Y92409375D03*
X209240625Y95709375D03*
%TD*%
%TO.C,D5*%
X47625000Y111459375D03*
X47625000Y114759375D03*
%TD*%
%TO.C,D22*%
X94940625Y92409375D03*
X94940625Y95709375D03*
%TD*%
%TO.C,D2*%
X-25700000Y111459375D03*
X-25700000Y114759375D03*
%TD*%
D15*
%TO.C,C21*%
X246600000Y59632500D03*
X246600000Y60767500D03*
%TD*%
D11*
%TO.C,D6*%
X66675000Y111459375D03*
X66675000Y114759375D03*
%TD*%
%TO.C,D63*%
X144946875Y35259375D03*
X144946875Y38559375D03*
%TD*%
D14*
%TO.C,R8*%
X247800001Y111802500D03*
X247800001Y112997500D03*
%TD*%
D24*
%TO.C,U3*%
X60050000Y34837500D03*
X59550000Y34837500D03*
X59050000Y34837500D03*
X58550000Y34837500D03*
X58050000Y34837500D03*
X57550000Y34837500D03*
X57050000Y34837500D03*
X56550000Y34837500D03*
X56050000Y34837500D03*
X55550000Y34837500D03*
X55050000Y34837500D03*
X54550000Y34837500D03*
D25*
X53137500Y36250000D03*
X53137500Y36750000D03*
X53137500Y37250000D03*
X53137500Y37750000D03*
X53137500Y38250000D03*
X53137500Y38750000D03*
X53137500Y39250000D03*
X53137500Y39750000D03*
X53137500Y40250000D03*
X53137500Y40750000D03*
X53137500Y41250000D03*
X53137500Y41750000D03*
D24*
X54550000Y43162500D03*
X55050000Y43162500D03*
X55550000Y43162500D03*
X56050000Y43162500D03*
X56550000Y43162500D03*
X57050000Y43162500D03*
X57550000Y43162500D03*
X58050000Y43162500D03*
X58550000Y43162500D03*
X59050000Y43162500D03*
X59550000Y43162500D03*
X60050000Y43162500D03*
D25*
X61462500Y41750000D03*
X61462500Y41250000D03*
X61462500Y40750000D03*
X61462500Y40250000D03*
X61462500Y39750000D03*
X61462500Y39250000D03*
X61462500Y38750000D03*
X61462500Y38250000D03*
X61462500Y37750000D03*
X61462500Y37250000D03*
X61462500Y36750000D03*
X61462500Y36250000D03*
%TD*%
D11*
%TO.C,D39*%
X137803125Y73359375D03*
X137803125Y76659375D03*
%TD*%
%TO.C,D34*%
X42553125Y73359375D03*
X42553125Y76659375D03*
%TD*%
%TO.C,D40*%
X156853125Y73359375D03*
X156853125Y76659375D03*
%TD*%
%TO.C,D46*%
X14287500Y54309375D03*
X14287500Y57609375D03*
%TD*%
D14*
%TO.C,R11*%
X247800000Y78682500D03*
X247800000Y79877500D03*
%TD*%
D11*
%TO.C,D37*%
X83575000Y73350000D03*
X83575000Y76650000D03*
%TD*%
%TO.C,D10*%
X142875000Y111459375D03*
X142875000Y114759375D03*
%TD*%
D26*
%TO.C,J1*%
X-11250000Y121415000D03*
X-10450000Y121415000D03*
D27*
X-9250000Y121415000D03*
X-8250000Y121415000D03*
X-7750000Y121415000D03*
X-6750000Y121415000D03*
D26*
X-5550000Y121415000D03*
X-4750000Y121415000D03*
X-4750000Y121415000D03*
X-5550000Y121415000D03*
D27*
X-6250000Y121415000D03*
X-7250000Y121415000D03*
X-8750000Y121415000D03*
X-9750000Y121415000D03*
D26*
X-10450000Y121415000D03*
X-11250000Y121415000D03*
%TD*%
D11*
%TO.C,D52*%
X112400000Y54309375D03*
X112400000Y57609375D03*
%TD*%
D28*
%TO.C,C3*%
X62023440Y27276516D03*
X62023440Y29351516D03*
%TD*%
D15*
%TO.C,C18*%
X246599999Y92832500D03*
X246599999Y93967500D03*
%TD*%
D29*
%TO.C,C9*%
X60482502Y33000001D03*
X61617502Y33000001D03*
%TD*%
D11*
%TO.C,D20*%
X56840625Y92409375D03*
X56840625Y95709375D03*
%TD*%
%TO.C,D51*%
X109537500Y54309375D03*
X109537500Y57609375D03*
%TD*%
D30*
%TO.C,D100*%
X5400000Y106200000D03*
X5400000Y103400000D03*
%TD*%
D11*
%TO.C,D18*%
X18740625Y92409375D03*
X18740625Y95709375D03*
%TD*%
%TO.C,D25*%
X152090625Y92409375D03*
X152090625Y95709375D03*
%TD*%
%TO.C,D1*%
X-28575000Y111459375D03*
X-28575000Y114759375D03*
%TD*%
%TO.C,D65*%
X183046875Y35259375D03*
X183046875Y38559375D03*
%TD*%
%TO.C,D32*%
X-14500000Y73350000D03*
X-14500000Y76650000D03*
%TD*%
D31*
%TO.C,C1*%
X28049633Y43063352D03*
X31174633Y43063352D03*
%TD*%
D14*
%TO.C,R4*%
X-5330000Y105592500D03*
X-5330000Y106787500D03*
%TD*%
%TO.C,R9*%
X247800000Y97802500D03*
X247800000Y98997500D03*
%TD*%
%TO.C,R12*%
X247850000Y73602500D03*
X247850000Y74797500D03*
%TD*%
D11*
%TO.C,D57*%
X226218750Y49546875D03*
X226218750Y52846875D03*
%TD*%
%TO.C,D11*%
X161925000Y111459375D03*
X161925000Y114759375D03*
%TD*%
%TO.C,D45*%
X-5953125Y54309375D03*
X-5953125Y57609375D03*
%TD*%
D10*
%TO.C,D15*%
X256950000Y104850000D03*
X260250000Y104850000D03*
%TD*%
D11*
%TO.C,D8*%
X104775000Y111459375D03*
X104775000Y114759375D03*
%TD*%
D32*
%TO.C,F1*%
X2800000Y106287500D03*
X2800000Y103312500D03*
%TD*%
D11*
%TO.C,D13*%
X200025000Y111459375D03*
X200025000Y114759375D03*
%TD*%
D14*
%TO.C,R7*%
X247800000Y116802500D03*
X247800000Y117997500D03*
%TD*%
D11*
%TO.C,D9*%
X123825000Y111459375D03*
X123825000Y114759375D03*
%TD*%
%TO.C,D43*%
X200025000Y73359375D03*
X200025000Y76659375D03*
%TD*%
D15*
%TO.C,C16*%
X246600000Y111832500D03*
X246600000Y112967500D03*
%TD*%
D14*
%TO.C,R10*%
X247800000Y92802500D03*
X247800000Y93997500D03*
%TD*%
D33*
%TO.C,C5*%
X63737502Y34300000D03*
X65462502Y34300000D03*
%TD*%
D15*
%TO.C,C19*%
X246600000Y78712500D03*
X246600000Y79847500D03*
%TD*%
%TO.C,C15*%
X246600000Y116832500D03*
X246600000Y117967500D03*
%TD*%
D11*
%TO.C,D56*%
X209550000Y54309375D03*
X209550000Y57609375D03*
%TD*%
%TO.C,D59*%
X-26193750Y35259375D03*
X-26193750Y38559375D03*
%TD*%
D29*
%TO.C,C6*%
X64018361Y35756641D03*
X65153361Y35756641D03*
%TD*%
D11*
%TO.C,D36*%
X80653125Y73359375D03*
X80653125Y76659375D03*
%TD*%
D34*
%TO.C,Q1*%
X242470000Y79662500D03*
X240570000Y79662500D03*
X241520000Y81537500D03*
%TD*%
D11*
%TO.C,D35*%
X61603125Y73359375D03*
X61603125Y76659375D03*
%TD*%
D35*
%TO.C,C10*%
X55840000Y32547500D03*
X55840000Y31412500D03*
%TD*%
M02*
