%TF.GenerationSoftware,KiCad,Pcbnew,(6.0.6-0)*%
%TF.CreationDate,2022-07-20T23:02:44+08:00*%
%TF.ProjectId,SCO68R,53434f36-3852-42e6-9b69-6361645f7063,rev?*%
%TF.SameCoordinates,Original*%
%TF.FileFunction,Soldermask,Top*%
%TF.FilePolarity,Negative*%
%FSLAX46Y46*%
G04 Gerber Fmt 4.6, Leading zero omitted, Abs format (unit mm)*
G04 Created by KiCad (PCBNEW (6.0.6-0)) date 2022-07-20 23:02:44*
%MOMM*%
%LPD*%
G01*
G04 APERTURE LIST*
G04 Aperture macros list*
%AMRoundRect*
0 Rectangle with rounded corners*
0 $1 Rounding radius*
0 $2 $3 $4 $5 $6 $7 $8 $9 X,Y pos of 4 corners*
0 Add a 4 corners polygon primitive as box body*
4,1,4,$2,$3,$4,$5,$6,$7,$8,$9,$2,$3,0*
0 Add four circle primitives for the rounded corners*
1,1,$1+$1,$2,$3*
1,1,$1+$1,$4,$5*
1,1,$1+$1,$6,$7*
1,1,$1+$1,$8,$9*
0 Add four rect primitives between the rounded corners*
20,1,$1+$1,$2,$3,$4,$5,0*
20,1,$1+$1,$4,$5,$6,$7,0*
20,1,$1+$1,$6,$7,$8,$9,0*
20,1,$1+$1,$8,$9,$2,$3,0*%
G04 Aperture macros list end*
%ADD10C,3.987800*%
%ADD11C,3.048000*%
%ADD12C,1.700000*%
%ADD13C,4.000000*%
%ADD14C,2.224000*%
%ADD15R,1.000000X0.750000*%
%ADD16RoundRect,0.155000X0.155000X-0.212500X0.155000X0.212500X-0.155000X0.212500X-0.155000X-0.212500X0*%
%ADD17R,0.850000X1.600000*%
%ADD18R,2.000000X2.000000*%
%ADD19C,2.000000*%
%ADD20R,3.200000X2.000000*%
%ADD21RoundRect,0.155000X-0.212500X-0.155000X0.212500X-0.155000X0.212500X0.155000X-0.212500X0.155000X0*%
%ADD22RoundRect,0.160000X-0.197500X-0.160000X0.197500X-0.160000X0.197500X0.160000X-0.197500X0.160000X0*%
%ADD23R,1.700000X1.700000*%
%ADD24O,1.700000X1.700000*%
%ADD25C,0.650000*%
%ADD26O,1.000000X2.100000*%
%ADD27O,1.000000X1.600000*%
G04 APERTURE END LIST*
D10*
%TO.C,REF\u002A\u002A*%
X37218750Y29875000D03*
D11*
X37218750Y45085000D03*
D10*
X132468750Y29875000D03*
D11*
X132468750Y45085000D03*
%TD*%
D12*
%TO.C,KSW4*%
X25630000Y114300000D03*
X15470000Y114300000D03*
D13*
X20550000Y114300000D03*
D14*
X23090000Y119380000D03*
X16740000Y116840000D03*
%TD*%
D12*
%TO.C,KSW14*%
X215495000Y114300000D03*
D13*
X220575000Y114300000D03*
D12*
X225655000Y114300000D03*
D14*
X223115000Y119380000D03*
X216765000Y116840000D03*
%TD*%
D13*
%TO.C,KSW40*%
X148828125Y76200000D03*
D12*
X153908125Y76200000D03*
X143748125Y76200000D03*
D14*
X151368125Y81280000D03*
X145018125Y78740000D03*
%TD*%
D12*
%TO.C,KSW57*%
X229782500Y52387500D03*
X239942500Y52387500D03*
D13*
X234862500Y52387500D03*
D14*
X237402500Y57467500D03*
X231052500Y54927500D03*
%TD*%
D15*
%TO.C,SW2*%
X121910900Y40295000D03*
X115910900Y40295000D03*
X121910900Y44045000D03*
X115910900Y44045000D03*
%TD*%
D12*
%TO.C,KSW39*%
X134858125Y76200000D03*
X124698125Y76200000D03*
D13*
X129778125Y76200000D03*
D14*
X132318125Y81280000D03*
X125968125Y78740000D03*
%TD*%
D16*
%TO.C,C14*%
X239740000Y113622500D03*
X239740000Y114757500D03*
%TD*%
D13*
%TO.C,KSW61*%
X13406250Y38100000D03*
D12*
X8326250Y38100000D03*
X18486250Y38100000D03*
D14*
X15946250Y43180000D03*
X9596250Y40640000D03*
%TD*%
D15*
%TO.C,SW1*%
X121822500Y32665000D03*
X115822500Y32665000D03*
X121822500Y36415000D03*
X115822500Y36415000D03*
%TD*%
D13*
%TO.C,KSW43*%
X217884375Y76200000D03*
D12*
X222964375Y76200000D03*
X212804375Y76200000D03*
D14*
X220424375Y81280000D03*
X214074375Y78740000D03*
%TD*%
D12*
%TO.C,KSW16*%
X-36917500Y95250000D03*
X-26757500Y95250000D03*
D13*
X-31837500Y95250000D03*
D14*
X-29297500Y100330000D03*
X-35647500Y97790000D03*
%TD*%
D12*
%TO.C,KSW41*%
X172958125Y76200000D03*
X162798125Y76200000D03*
D13*
X167878125Y76200000D03*
D14*
X170418125Y81280000D03*
X164068125Y78740000D03*
%TD*%
D12*
%TO.C,KSW5*%
X34520000Y114300000D03*
D13*
X39600000Y114300000D03*
D12*
X44680000Y114300000D03*
D14*
X42140000Y119380000D03*
X35790000Y116840000D03*
%TD*%
D13*
%TO.C,KSW22*%
X86915625Y95250000D03*
D12*
X91995625Y95250000D03*
X81835625Y95250000D03*
D14*
X89455625Y100330000D03*
X83105625Y97790000D03*
%TD*%
D13*
%TO.C,KSW27*%
X182165625Y95250000D03*
D12*
X187245625Y95250000D03*
X177085625Y95250000D03*
D14*
X184705625Y100330000D03*
X178355625Y97790000D03*
%TD*%
D13*
%TO.C,KSW1*%
X-36600000Y114300000D03*
D12*
X-41680000Y114300000D03*
X-31520000Y114300000D03*
D14*
X-34060000Y119380000D03*
X-40410000Y116840000D03*
%TD*%
D12*
%TO.C,KSW37*%
X86598125Y76200000D03*
D13*
X91678125Y76200000D03*
D12*
X96758125Y76200000D03*
D14*
X94218125Y81280000D03*
X87868125Y78740000D03*
%TD*%
D12*
%TO.C,KSW34*%
X29448125Y76200000D03*
X39608125Y76200000D03*
D13*
X34528125Y76200000D03*
D14*
X37068125Y81280000D03*
X30718125Y78740000D03*
%TD*%
D13*
%TO.C,KSW58*%
X258675000Y57150000D03*
D12*
X263755000Y57150000D03*
X253595000Y57150000D03*
D14*
X261215000Y62230000D03*
X254865000Y59690000D03*
%TD*%
D12*
%TO.C,KSW59*%
X-39298750Y38100000D03*
D13*
X-34218750Y38100000D03*
D12*
X-29138750Y38100000D03*
D14*
X-31678750Y43180000D03*
X-38028750Y40640000D03*
%TD*%
D11*
%TO.C,REF\u002A\u002A*%
X229822375Y83185000D03*
D10*
X229822375Y67975000D03*
X205946375Y67975000D03*
D11*
X205946375Y83185000D03*
%TD*%
D13*
%TO.C,KSW21*%
X67865625Y95250000D03*
D12*
X72945625Y95250000D03*
X62785625Y95250000D03*
D14*
X70405625Y100330000D03*
X64055625Y97790000D03*
%TD*%
D12*
%TO.C,KSW52*%
X115482500Y57150000D03*
D13*
X120562500Y57150000D03*
D12*
X125642500Y57150000D03*
D14*
X123102500Y62230000D03*
X116752500Y59690000D03*
%TD*%
D12*
%TO.C,KSW56*%
X196445000Y57150000D03*
X206605000Y57150000D03*
D13*
X201525000Y57150000D03*
D14*
X204065000Y62230000D03*
X197715000Y59690000D03*
%TD*%
D12*
%TO.C,KSW17*%
X-13414375Y95250000D03*
D13*
X-8334375Y95250000D03*
D12*
X-3254375Y95250000D03*
D14*
X-5794375Y100330000D03*
X-12144375Y97790000D03*
%TD*%
D12*
%TO.C,KSW44*%
X253595000Y76200000D03*
D13*
X258675000Y76200000D03*
D12*
X263755000Y76200000D03*
D14*
X261215000Y81280000D03*
X254865000Y78740000D03*
%TD*%
D12*
%TO.C,KSW6*%
X63730000Y114300000D03*
D13*
X58650000Y114300000D03*
D12*
X53570000Y114300000D03*
D14*
X61190000Y119380000D03*
X54840000Y116840000D03*
%TD*%
D12*
%TO.C,KSW20*%
X53895625Y95250000D03*
X43735625Y95250000D03*
D13*
X48815625Y95250000D03*
D14*
X51355625Y100330000D03*
X45005625Y97790000D03*
%TD*%
D13*
%TO.C,KSW15*%
X258675000Y114300000D03*
D12*
X263755000Y114300000D03*
X253595000Y114300000D03*
D14*
X261215000Y119380000D03*
X254865000Y116840000D03*
%TD*%
D13*
%TO.C,KSW68*%
X253912500Y33337500D03*
D12*
X248832500Y33337500D03*
X258992500Y33337500D03*
D14*
X256452500Y38417500D03*
X250102500Y35877500D03*
%TD*%
D13*
%TO.C,KSW62*%
X84843750Y38100000D03*
D12*
X79763750Y38100000D03*
X89923750Y38100000D03*
D14*
X87383750Y43180000D03*
X81033750Y40640000D03*
%TD*%
D13*
%TO.C,KSW9*%
X115800000Y114300000D03*
D12*
X110720000Y114300000D03*
X120880000Y114300000D03*
D14*
X118340000Y119380000D03*
X111990000Y116840000D03*
%TD*%
D12*
%TO.C,KSW36*%
X77708125Y76200000D03*
X67548125Y76200000D03*
D13*
X72628125Y76200000D03*
D14*
X75168125Y81280000D03*
X68818125Y78740000D03*
%TD*%
D12*
%TO.C,KSW64*%
X177720625Y38100000D03*
D13*
X172640625Y38100000D03*
D12*
X167560625Y38100000D03*
D14*
X175180625Y43180000D03*
X168830625Y40640000D03*
%TD*%
D17*
%TO.C,D71*%
X243375102Y115950000D03*
X241625102Y115950000D03*
X241625102Y112450000D03*
X243375102Y112450000D03*
%TD*%
D13*
%TO.C,KSW51*%
X101512500Y57150000D03*
D12*
X106592500Y57150000D03*
X96432500Y57150000D03*
D14*
X104052500Y62230000D03*
X97702500Y59690000D03*
%TD*%
D12*
%TO.C,KSW49*%
X68492500Y57150000D03*
X58332500Y57150000D03*
D13*
X63412500Y57150000D03*
D14*
X65952500Y62230000D03*
X59602500Y59690000D03*
%TD*%
D16*
%TO.C,C12*%
X239740000Y91522500D03*
X239740000Y92657500D03*
%TD*%
D12*
%TO.C,KSW33*%
X20558125Y76200000D03*
X10398125Y76200000D03*
D13*
X15478125Y76200000D03*
D14*
X18018125Y81280000D03*
X11668125Y78740000D03*
%TD*%
D12*
%TO.C,KSW3*%
X-3580000Y114300000D03*
X6580000Y114300000D03*
D13*
X1500000Y114300000D03*
D14*
X4040000Y119380000D03*
X-2310000Y116840000D03*
%TD*%
D12*
%TO.C,KSW65*%
X196770625Y38100000D03*
D13*
X191690625Y38100000D03*
D12*
X186610625Y38100000D03*
D14*
X194230625Y43180000D03*
X187880625Y40640000D03*
%TD*%
D12*
%TO.C,KSW60*%
X-15486250Y38100000D03*
D13*
X-10406250Y38100000D03*
D12*
X-5326250Y38100000D03*
D14*
X-7866250Y43180000D03*
X-14216250Y40640000D03*
%TD*%
D12*
%TO.C,KSW23*%
X100885625Y95250000D03*
D13*
X105965625Y95250000D03*
D12*
X111045625Y95250000D03*
D14*
X108505625Y100330000D03*
X102155625Y97790000D03*
%TD*%
D13*
%TO.C,KSW13*%
X192000000Y114300000D03*
D12*
X186920000Y114300000D03*
X197080000Y114300000D03*
D14*
X194540000Y119380000D03*
X188190000Y116840000D03*
%TD*%
D13*
%TO.C,KSW46*%
X6262500Y57150000D03*
D12*
X11342500Y57150000D03*
X1182500Y57150000D03*
D14*
X8802500Y62230000D03*
X2452500Y59690000D03*
%TD*%
D12*
%TO.C,KSW28*%
X196135625Y95250000D03*
X206295625Y95250000D03*
D13*
X201215625Y95250000D03*
D14*
X203755625Y100330000D03*
X197405625Y97790000D03*
%TD*%
D12*
%TO.C,KSW67*%
X239942500Y33337500D03*
D13*
X234862500Y33337500D03*
D12*
X229782500Y33337500D03*
D14*
X237402500Y38417500D03*
X231052500Y35877500D03*
%TD*%
D18*
%TO.C,KSWR1*%
X251115625Y116800000D03*
D19*
X251115625Y111800000D03*
X251115625Y114300000D03*
D20*
X258615625Y108700000D03*
X258615625Y119900000D03*
D19*
X265615625Y111800000D03*
X265615625Y116800000D03*
%TD*%
D21*
%TO.C,C11*%
X112252500Y40270000D03*
X113387500Y40270000D03*
%TD*%
D12*
%TO.C,KSW45*%
X-30083125Y57150000D03*
D13*
X-25003125Y57150000D03*
D12*
X-19923125Y57150000D03*
D14*
X-22463125Y62230000D03*
X-28813125Y59690000D03*
%TD*%
D12*
%TO.C,KSW32*%
X1508125Y76200000D03*
X-8651875Y76200000D03*
D13*
X-3571875Y76200000D03*
D14*
X-1031875Y81280000D03*
X-7381875Y78740000D03*
%TD*%
D12*
%TO.C,KSW24*%
X130095625Y95250000D03*
D13*
X125015625Y95250000D03*
D12*
X119935625Y95250000D03*
D14*
X127555625Y100330000D03*
X121205625Y97790000D03*
%TD*%
D12*
%TO.C,KSW26*%
X168195625Y95250000D03*
X158035625Y95250000D03*
D13*
X163115625Y95250000D03*
D14*
X165655625Y100330000D03*
X159305625Y97790000D03*
%TD*%
D12*
%TO.C,KSW63*%
X158670625Y38100000D03*
D13*
X153590625Y38100000D03*
D12*
X148510625Y38100000D03*
D14*
X156130625Y43180000D03*
X149780625Y40640000D03*
%TD*%
D12*
%TO.C,KSW55*%
X182792500Y57150000D03*
X172632500Y57150000D03*
D13*
X177712500Y57150000D03*
D14*
X180252500Y62230000D03*
X173902500Y59690000D03*
%TD*%
D12*
%TO.C,KSW31*%
X-34536250Y76200000D03*
D13*
X-29456250Y76200000D03*
D12*
X-24376250Y76200000D03*
D14*
X-26916250Y81280000D03*
X-33266250Y78740000D03*
%TD*%
D12*
%TO.C,KSW30*%
X263755000Y95250000D03*
D13*
X258675000Y95250000D03*
D12*
X253595000Y95250000D03*
D14*
X261215000Y100330000D03*
X254865000Y97790000D03*
%TD*%
D12*
%TO.C,KSW25*%
X138985625Y95250000D03*
X149145625Y95250000D03*
D13*
X144065625Y95250000D03*
D14*
X146605625Y100330000D03*
X140255625Y97790000D03*
%TD*%
D12*
%TO.C,KSW10*%
X129770000Y114300000D03*
D13*
X134850000Y114300000D03*
D12*
X139930000Y114300000D03*
D14*
X137390000Y119380000D03*
X131040000Y116840000D03*
%TD*%
D17*
%TO.C,D69*%
X243275000Y93850000D03*
X241525000Y93850000D03*
X241525000Y90350000D03*
X243275000Y90350000D03*
%TD*%
D12*
%TO.C,KSW2*%
X-12470000Y114300000D03*
D13*
X-17550000Y114300000D03*
D12*
X-22630000Y114300000D03*
D14*
X-15010000Y119380000D03*
X-21360000Y116840000D03*
%TD*%
D10*
%TO.C,REF\u002A\u002A*%
X-36941125Y48925000D03*
D11*
X-13065125Y64135000D03*
D10*
X-13065125Y48925000D03*
D11*
X-36941125Y64135000D03*
%TD*%
D22*
%TO.C,R1*%
X112232500Y37750000D03*
X113427500Y37750000D03*
%TD*%
D12*
%TO.C,KSW11*%
X148820000Y114300000D03*
D13*
X153900000Y114300000D03*
D12*
X158980000Y114300000D03*
D14*
X156440000Y119380000D03*
X150090000Y116840000D03*
%TD*%
D12*
%TO.C,KSW42*%
X181848125Y76200000D03*
D13*
X186928125Y76200000D03*
D12*
X192008125Y76200000D03*
D14*
X189468125Y81280000D03*
X183118125Y78740000D03*
%TD*%
D11*
%TO.C,REF\u002A\u002A*%
X232513000Y121285000D03*
D10*
X208637000Y106075000D03*
D11*
X208637000Y121285000D03*
D10*
X232513000Y106075000D03*
%TD*%
D17*
%TO.C,D70*%
X243380000Y104900000D03*
X241630000Y104900000D03*
X241630000Y101400000D03*
X243380000Y101400000D03*
%TD*%
D13*
%TO.C,KSW53*%
X139612500Y57150000D03*
D12*
X144692500Y57150000D03*
X134532500Y57150000D03*
D14*
X142152500Y62230000D03*
X135802500Y59690000D03*
%TD*%
D13*
%TO.C,KSW47*%
X25312500Y57150000D03*
D12*
X20232500Y57150000D03*
X30392500Y57150000D03*
D14*
X27852500Y62230000D03*
X21502500Y59690000D03*
%TD*%
D13*
%TO.C,KSW19*%
X29765625Y95250000D03*
D12*
X34845625Y95250000D03*
X24685625Y95250000D03*
D14*
X32305625Y100330000D03*
X25955625Y97790000D03*
%TD*%
D12*
%TO.C,KSW18*%
X15795625Y95250000D03*
X5635625Y95250000D03*
D13*
X10715625Y95250000D03*
D14*
X13255625Y100330000D03*
X6905625Y97790000D03*
%TD*%
D12*
%TO.C,KSW35*%
X48498125Y76200000D03*
X58658125Y76200000D03*
D13*
X53578125Y76200000D03*
D14*
X56118125Y81280000D03*
X49768125Y78740000D03*
%TD*%
D18*
%TO.C,KSWR2*%
X251115625Y97750000D03*
D19*
X251115625Y92750000D03*
X251115625Y95250000D03*
D20*
X258615625Y100850000D03*
X258615625Y89650000D03*
D19*
X265615625Y92750000D03*
X265615625Y97750000D03*
%TD*%
D12*
%TO.C,KSW8*%
X101830000Y114300000D03*
X91670000Y114300000D03*
D13*
X96750000Y114300000D03*
D14*
X99290000Y119380000D03*
X92940000Y116840000D03*
%TD*%
D16*
%TO.C,C13*%
X239740000Y102572500D03*
X239740000Y103707500D03*
%TD*%
D12*
%TO.C,KSW66*%
X210732500Y33337500D03*
D13*
X215812500Y33337500D03*
D12*
X220892500Y33337500D03*
D14*
X218352500Y38417500D03*
X212002500Y35877500D03*
%TD*%
D13*
%TO.C,KSW50*%
X82462500Y57150000D03*
D12*
X87542500Y57150000D03*
X77382500Y57150000D03*
D14*
X85002500Y62230000D03*
X78652500Y59690000D03*
%TD*%
D12*
%TO.C,KSW54*%
X163742500Y57150000D03*
X153582500Y57150000D03*
D13*
X158662500Y57150000D03*
D14*
X161202500Y62230000D03*
X154852500Y59690000D03*
%TD*%
D18*
%TO.C,KSWR4*%
X251115625Y59650000D03*
D19*
X251115625Y54650000D03*
X251115625Y57150000D03*
D20*
X258615625Y62750000D03*
X258615625Y51550000D03*
D19*
X265615625Y54650000D03*
X265615625Y59650000D03*
%TD*%
D12*
%TO.C,KSW12*%
X178030000Y114300000D03*
D13*
X172950000Y114300000D03*
D12*
X167870000Y114300000D03*
D14*
X175490000Y119380000D03*
X169140000Y116840000D03*
%TD*%
D12*
%TO.C,KSW7*%
X72620000Y114300000D03*
X82780000Y114300000D03*
D13*
X77700000Y114300000D03*
D14*
X80240000Y119380000D03*
X73890000Y116840000D03*
%TD*%
D12*
%TO.C,KSW29*%
X219948125Y95250000D03*
X230108125Y95250000D03*
D13*
X225028125Y95250000D03*
D14*
X227568125Y100330000D03*
X221218125Y97790000D03*
%TD*%
D13*
%TO.C,KSW38*%
X110728125Y76200000D03*
D12*
X105648125Y76200000D03*
X115808125Y76200000D03*
D14*
X113268125Y81280000D03*
X106918125Y78740000D03*
%TD*%
D12*
%TO.C,KSW48*%
X49442500Y57150000D03*
D13*
X44362500Y57150000D03*
D12*
X39282500Y57150000D03*
D14*
X46902500Y62230000D03*
X40552500Y59690000D03*
%TD*%
D10*
%TO.C,REF\u002A\u002A*%
X37218750Y29875000D03*
D11*
X37218750Y45085000D03*
D10*
X132468750Y29875000D03*
D11*
X132468750Y45085000D03*
%TD*%
D18*
%TO.C,KSWR3*%
X251115625Y78700000D03*
D19*
X251115625Y73700000D03*
X251115625Y76200000D03*
D20*
X258615625Y70600000D03*
X258615625Y81800000D03*
D19*
X265615625Y73700000D03*
X265615625Y78700000D03*
%TD*%
D23*
%TO.C,J2*%
X100600000Y39285000D03*
D24*
X100600000Y36745000D03*
X103140000Y39285000D03*
X103140000Y36745000D03*
X105680000Y39285000D03*
X105680000Y36745000D03*
X108220000Y39285000D03*
X108220000Y36745000D03*
%TD*%
D25*
%TO.C,J1*%
X-5110000Y122860000D03*
X-10890000Y122860000D03*
D26*
X-12320000Y122330000D03*
D27*
X-12320000Y126510000D03*
X-3680000Y126510000D03*
D26*
X-3680000Y122330000D03*
%TD*%
M02*
