M48
; DRILL file {KiCad (6.0.6-0)} date 2022 July 20, Wednesday 22:47:03
; FORMAT={-:-/ absolute / metric / decimal}
; #@! TF.CreationDate,2022-07-20T22:47:03+08:00
; #@! TF.GenerationSoftware,Kicad,Pcbnew,(6.0.6-0)
; #@! TF.FileFunction,NonPlated,1,2,NPTH
FMAT,2
METRIC
; #@! TA.AperFunction,NonPlated,NPTH,ComponentDrill
T1C0.650
; #@! TA.AperFunction,NonPlated,NPTH,ComponentDrill
T2C1.700
; #@! TA.AperFunction,NonPlated,NPTH,ComponentDrill
T3C3.048
; #@! TA.AperFunction,NonPlated,NPTH,ComponentDrill
T4C3.988
; #@! TA.AperFunction,NonPlated,NPTH,ComponentDrill
T5C4.000
%
G90
G05
T1
X-10.89Y122.86
X-5.11Y122.86
T2
X-41.68Y114.3
X-39.299Y38.1
X-36.917Y95.25
X-34.536Y76.2
X-31.52Y114.3
X-30.083Y57.15
X-29.139Y38.1
X-26.758Y95.25
X-24.376Y76.2
X-22.63Y114.3
X-19.923Y57.15
X-15.486Y38.1
X-13.414Y95.25
X-12.47Y114.3
X-8.652Y76.2
X-5.326Y38.1
X-3.58Y114.3
X-3.254Y95.25
X1.182Y57.15
X1.508Y76.2
X5.636Y95.25
X6.58Y114.3
X8.326Y38.1
X10.398Y76.2
X11.342Y57.15
X15.47Y114.3
X15.796Y95.25
X18.486Y38.1
X20.232Y57.15
X20.558Y76.2
X24.686Y95.25
X25.63Y114.3
X29.448Y76.2
X30.392Y57.15
X34.52Y114.3
X34.846Y95.25
X39.282Y57.15
X39.608Y76.2
X43.736Y95.25
X44.68Y114.3
X48.498Y76.2
X49.442Y57.15
X53.57Y114.3
X53.896Y95.25
X58.332Y57.15
X58.658Y76.2
X62.786Y95.25
X63.73Y114.3
X67.548Y76.2
X68.492Y57.15
X72.62Y114.3
X72.946Y95.25
X77.382Y57.15
X77.708Y76.2
X79.764Y38.1
X81.836Y95.25
X82.78Y114.3
X86.598Y76.2
X87.542Y57.15
X89.924Y38.1
X91.67Y114.3
X91.996Y95.25
X96.432Y57.15
X96.758Y76.2
X100.886Y95.25
X101.83Y114.3
X105.648Y76.2
X106.593Y57.15
X110.72Y114.3
X111.046Y95.25
X115.483Y57.15
X115.808Y76.2
X119.936Y95.25
X120.88Y114.3
X124.698Y76.2
X125.642Y57.15
X129.77Y114.3
X130.096Y95.25
X134.532Y57.15
X134.858Y76.2
X138.986Y95.25
X139.93Y114.3
X143.748Y76.2
X144.692Y57.15
X148.511Y38.1
X148.82Y114.3
X149.146Y95.25
X153.582Y57.15
X153.908Y76.2
X158.036Y95.25
X158.671Y38.1
X158.98Y114.3
X162.798Y76.2
X163.742Y57.15
X167.561Y38.1
X167.87Y114.3
X168.196Y95.25
X172.632Y57.15
X172.958Y76.2
X177.086Y95.25
X177.721Y38.1
X178.03Y114.3
X181.848Y76.2
X182.792Y57.15
X186.611Y38.1
X186.92Y114.3
X187.246Y95.25
X192.008Y76.2
X196.136Y95.25
X196.445Y57.15
X196.771Y38.1
X197.08Y114.3
X206.296Y95.25
X206.605Y57.15
X210.732Y33.337
X212.804Y76.2
X215.495Y114.3
X219.948Y95.25
X220.892Y33.337
X222.964Y76.2
X225.655Y114.3
X229.782Y52.387
X229.782Y33.337
X230.108Y95.25
X239.942Y52.387
X239.942Y33.337
X248.832Y33.337
X253.595Y114.3
X253.595Y95.25
X253.595Y76.2
X253.595Y57.15
X258.993Y33.337
X263.755Y114.3
X263.755Y95.25
X263.755Y76.2
X263.755Y57.15
T3
X-36.941Y64.135
X-13.065Y64.135
X37.219Y45.085
X37.219Y45.085
X132.469Y45.085
X132.469Y45.085
X205.946Y83.185
X208.637Y121.285
X229.822Y83.185
X232.513Y121.285
T4
X-36.941Y48.925
X-13.065Y48.925
X37.219Y29.875
X37.219Y29.875
X132.469Y29.875
X132.469Y29.875
X205.946Y67.975
X208.637Y106.075
X229.822Y67.975
X232.513Y106.075
T5
X-36.6Y114.3
X-34.219Y38.1
X-31.837Y95.25
X-29.456Y76.2
X-25.003Y57.15
X-17.55Y114.3
X-10.406Y38.1
X-8.334Y95.25
X-3.572Y76.2
X1.5Y114.3
X6.262Y57.15
X10.716Y95.25
X13.406Y38.1
X15.478Y76.2
X20.55Y114.3
X25.312Y57.15
X29.766Y95.25
X34.528Y76.2
X39.6Y114.3
X44.362Y57.15
X48.816Y95.25
X53.578Y76.2
X58.65Y114.3
X63.412Y57.15
X67.866Y95.25
X72.628Y76.2
X77.7Y114.3
X82.462Y57.15
X84.844Y38.1
X86.916Y95.25
X91.678Y76.2
X96.75Y114.3
X101.512Y57.15
X105.966Y95.25
X110.728Y76.2
X115.8Y114.3
X120.562Y57.15
X125.016Y95.25
X129.778Y76.2
X134.85Y114.3
X139.612Y57.15
X144.066Y95.25
X148.828Y76.2
X153.591Y38.1
X153.9Y114.3
X158.662Y57.15
X163.116Y95.25
X167.878Y76.2
X172.641Y38.1
X172.95Y114.3
X177.713Y57.15
X182.166Y95.25
X186.928Y76.2
X191.691Y38.1
X192.0Y114.3
X201.216Y95.25
X201.525Y57.15
X215.812Y33.337
X217.884Y76.2
X220.575Y114.3
X225.028Y95.25
X234.862Y52.387
X234.862Y33.337
X253.912Y33.337
X258.675Y114.3
X258.675Y95.25
X258.675Y76.2
X258.675Y57.15
T0
M30
